<svg id="visual" viewBox="0 0 1920 1280" width="1920" height="1280" xmlns="http://www.w3.org/2000/svg" xmlns:xlink="http://www.w3.org/1999/xlink" version="1.1"><rect x="0" y="0" width="1920" height="1280" fill="#060538"></rect><defs><linearGradient id="grad1_0" x1="33.3%" y1="100%" x2="100%" y2="0%"><stop offset="20%" stop-color="#5754e8" stop-opacity="1"></stop><stop offset="80%" stop-color="#5754e8" stop-opacity="1"></stop></linearGradient></defs><defs><linearGradient id="grad1_1" x1="33.3%" y1="100%" x2="100%" y2="0%"><stop offset="20%" stop-color="#5754e8" stop-opacity="1"></stop><stop offset="80%" stop-color="#3839a9" stop-opacity="1"></stop></linearGradient></defs><defs><linearGradient id="grad1_2" x1="33.3%" y1="100%" x2="100%" y2="0%"><stop offset="20%" stop-color="#1b206e" stop-opacity="1"></stop><stop offset="80%" stop-color="#3839a9" stop-opacity="1"></stop></linearGradient></defs><defs><linearGradient id="grad1_3" x1="33.3%" y1="100%" x2="100%" y2="0%"><stop offset="20%" stop-color="#1b206e" stop-opacity="1"></stop><stop offset="80%" stop-color="#060538" stop-opacity="1"></stop></linearGradient></defs><defs><linearGradient id="grad2_0" x1="0%" y1="100%" x2="66.7%" y2="0%"><stop offset="20%" stop-color="#5754e8" stop-opacity="1"></stop><stop offset="80%" stop-color="#5754e8" stop-opacity="1"></stop></linearGradient></defs><defs><linearGradient id="grad2_1" x1="0%" y1="100%" x2="66.7%" y2="0%"><stop offset="20%" stop-color="#3839a9" stop-opacity="1"></stop><stop offset="80%" stop-color="#5754e8" stop-opacity="1"></stop></linearGradient></defs><defs><linearGradient id="grad2_2" x1="0%" y1="100%" x2="66.7%" y2="0%"><stop offset="20%" stop-color="#3839a9" stop-opacity="1"></stop><stop offset="80%" stop-color="#1b206e" stop-opacity="1"></stop></linearGradient></defs><defs><linearGradient id="grad2_3" x1="0%" y1="100%" x2="66.7%" y2="0%"><stop offset="20%" stop-color="#060538" stop-opacity="1"></stop><stop offset="80%" stop-color="#1b206e" stop-opacity="1"></stop></linearGradient></defs><g transform="translate(1920, 1280)"><path d="M-1153.8 0C-1173.1 -85.1 -1192.5 -170.2 -1131.6 -225.1C-1070.7 -280 -929.6 -304.8 -898.9 -372.4C-868.3 -439.9 -948 -550.3 -948.7 -633.9C-949.4 -717.5 -871 -774.4 -769.3 -769.3C-667.7 -764.2 -542.7 -697.2 -468.9 -701.8C-395.1 -706.4 -372.4 -782.6 -327.2 -789.9C-282 -797.2 -214.4 -735.5 -156.1 -784.6C-97.8 -833.8 -48.9 -993.8 0 -1153.8L0 0Z" fill="#0d1452"></path><path d="M-865.3 0C-879.8 -63.8 -894.4 -127.6 -848.7 -168.8C-803 -210 -697.2 -228.6 -674.2 -279.3C-651.2 -329.9 -711 -412.7 -711.5 -475.4C-712 -538.1 -653.2 -580.8 -577 -577C-500.7 -573.2 -407 -522.9 -351.7 -526.3C-296.3 -529.8 -279.3 -587 -245.4 -592.4C-211.5 -597.9 -160.8 -551.6 -117.1 -588.5C-73.3 -625.3 -36.7 -745.3 0 -865.3L0 0Z" fill="#292c8b"></path><path d="M-576.9 0C-586.6 -42.5 -596.2 -85.1 -565.8 -112.5C-535.4 -140 -464.8 -152.4 -449.5 -186.2C-434.1 -220 -474 -275.1 -474.4 -317C-474.7 -358.8 -435.5 -387.2 -384.7 -384.7C-333.8 -382.1 -271.4 -348.6 -234.5 -350.9C-197.5 -353.2 -186.2 -391.3 -163.6 -395C-141 -398.6 -107.2 -367.7 -78 -392.3C-48.9 -416.9 -24.4 -496.9 0 -576.9L0 0Z" fill="#4746c8"></path><path d="M-288.4 0C-293.3 -21.3 -298.1 -42.5 -282.9 -56.3C-267.7 -70 -232.4 -76.2 -224.7 -93.1C-217.1 -110 -237 -137.6 -237.2 -158.5C-237.3 -179.4 -217.7 -193.6 -192.3 -192.3C-166.9 -191.1 -135.7 -174.3 -117.2 -175.4C-98.8 -176.6 -93.1 -195.7 -81.8 -197.5C-70.5 -199.3 -53.6 -183.9 -39 -196.2C-24.4 -208.4 -12.2 -248.4 0 -288.4L0 0Z" fill="#5754e8"></path></g><g transform="translate(0, 0)"><path d="M1153.8 0C1065.1 62.2 976.4 124.5 927.8 184.6C879.2 244.7 870.7 302.6 845.3 350.2C820 397.7 777.7 434.8 783.2 523.3C788.7 611.9 842 751.9 815.8 815.8C789.7 879.8 684.2 867.8 612.8 917.1C541.4 966.4 504.2 1077.1 426.7 1030.1C349.2 983.1 231.5 778.5 153.7 772.9C75.9 767.2 38 960.5 0 1153.8L0 0Z" fill="#0d1452"></path><path d="M865.3 0C798.8 46.7 732.3 93.3 695.9 138.4C659.4 183.5 653 227 634 262.6C615 298.3 583.3 326.1 587.4 392.5C591.6 458.9 631.5 563.9 611.9 611.9C592.3 659.9 513.1 650.8 459.6 687.8C406.1 724.8 378.1 807.8 320 772.6C261.9 737.4 173.7 583.9 115.3 579.6C56.9 575.4 28.5 720.4 0 865.3L0 0Z" fill="#292c8b"></path><path d="M576.9 0C532.5 31.1 488.2 62.2 463.9 92.3C439.6 122.3 435.4 151.3 422.7 175.1C410 198.8 388.9 217.4 391.6 261.7C394.4 305.9 421 375.9 407.9 407.9C394.9 439.9 342.1 433.9 306.4 458.6C270.7 483.2 252.1 538.6 213.3 515.1C174.6 491.6 115.8 389.3 76.9 386.4C38 383.6 19 480.2 0 576.9L0 0Z" fill="#4746c8"></path><path d="M288.4 0C266.3 15.6 244.1 31.1 232 46.1C219.8 61.2 217.7 75.7 211.3 87.5C205 99.4 194.4 108.7 195.8 130.8C197.2 153 210.5 188 204 204C197.4 220 171 216.9 153.2 229.3C135.4 241.6 126 269.3 106.7 257.5C87.3 245.8 57.9 194.6 38.4 193.2C19 191.8 9.5 240.1 0 288.4L0 0Z" fill="#5754e8"></path></g></svg>